HIERARCHY
ROOT pelvis
{
	OFFSET 0.003123 -0.351407 0.012037
	CHANNELS 6 Xposition Yposition Zposition Zrotation Yrotation Xrotation 
	JOINT left_hip
	{
		OFFSET 0.058189 -0.092763 -0.026001
		CHANNELS 3 Zrotation Yrotation Xrotation
		JOINT left_knee
		{
			OFFSET 0.054695 -0.378753 -0.009396
			CHANNELS 3 Zrotation Yrotation Xrotation
			JOINT left_ankle
			{
				OFFSET -0.043453 -0.403059 -0.031876
				CHANNELS 3 Zrotation Yrotation Xrotation
				JOINT left_foot
				{
					OFFSET 0.047257 -0.057997 0.118216
					CHANNELS 3 Zrotation Yrotation Xrotation
					End Site
					{
						OFFSET 0.000000 0.000000 0.000000
					}
				}
			}
		}
	}
	JOINT right_hip
	{
		OFFSET -0.063267 -0.103908 -0.021250
		CHANNELS 3 Zrotation Yrotation Xrotation
		JOINT right_knee
		{
			OFFSET -0.044210 -0.362380 -0.016824
			CHANNELS 3 Zrotation Yrotation Xrotation
			JOINT right_ankle
			{
				OFFSET 0.015417 -0.410728 -0.020192
				CHANNELS 3 Zrotation Yrotation Xrotation
				JOINT right_foot
				{
					OFFSET -0.038812 -0.058328 0.119049
					CHANNELS 3 Zrotation Yrotation Xrotation
					End Site
					{
						OFFSET 0.000000 0.000000 0.000000
					}
				}
			}
		}
	}
	JOINT spine_1
	{
		OFFSET -0.002763 0.109891 -0.027618
		CHANNELS 3 Zrotation Yrotation Xrotation
		JOINT spine_2
		{
			OFFSET 0.009448 0.131853 -0.005940
			CHANNELS 3 Zrotation Yrotation Xrotation
			JOINT spine_3
			{
				OFFSET -0.011330 0.052235 0.028447
				CHANNELS 3 Zrotation Yrotation Xrotation
				JOINT neck
				{
					OFFSET -0.012164 0.165167 -0.031615
					CHANNELS 3 Zrotation Yrotation Xrotation
					JOINT head
					{
						OFFSET 0.024783 0.160452 0.020737
						CHANNELS 3 Zrotation Yrotation Xrotation
						End Site
						{
							OFFSET 0.000000 0.000000 0.000000
						}
					}
				}
				JOINT left_collar
				{
					OFFSET 0.046364 0.084944 -0.007220
					CHANNELS 3 Zrotation Yrotation Xrotation
					JOINT left_shoulder
					{
						OFFSET 0.119239 0.057728 -0.015461
						CHANNELS 3 Zrotation Yrotation Xrotation
						JOINT left_elbow
						{
							OFFSET 0.254123 -0.072151 -0.042459
							CHANNELS 3 Zrotation Yrotation Xrotation
							JOINT left_wrist
							{
								OFFSET 0.251987 0.023221 -0.002472
								CHANNELS 3 Zrotation Yrotation Xrotation
								JOINT left_index_1
								{
									OFFSET 0.101902 -0.008688 0.019351
									CHANNELS 3 Zrotation Yrotation Xrotation
									JOINT left_index_2
									{
										OFFSET 0.030149 -0.011154 0.001151
										CHANNELS 3 Zrotation Yrotation Xrotation
										JOINT left_index_3
										{
											OFFSET 0.006504 -0.021577 -0.002433
											CHANNELS 3 Zrotation Yrotation Xrotation
											End Site
											{
												OFFSET 0.000000 0.000000 0.000000
											}
										}
									}
								}
								JOINT left_middle_1
								{
									OFFSET 0.109398 -0.006328 -0.003981
									CHANNELS 3 Zrotation Yrotation Xrotation
									JOINT left_middle_2
									{
										OFFSET 0.026472 -0.015218 -0.004641
										CHANNELS 3 Zrotation Yrotation Xrotation
										JOINT left_middle_3
										{
											OFFSET 0.005022 -0.023347 -0.001911
											CHANNELS 3 Zrotation Yrotation Xrotation
											End Site
											{
												OFFSET 0.000000 0.000000 0.000000
											}
										}
									}
								}
								JOINT left_pinky_1
								{
									OFFSET 0.084047 -0.014539 -0.043750
									CHANNELS 3 Zrotation Yrotation Xrotation
									JOINT left_pinky_2
									{
										OFFSET 0.012124 -0.014448 -0.005375
										CHANNELS 3 Zrotation Yrotation Xrotation
										JOINT left_pinky_3
										{
											OFFSET 0.003798 -0.018853 0.000167
											CHANNELS 3 Zrotation Yrotation Xrotation
											End Site
											{
												OFFSET 0.000000 0.000000 0.000000
											}
										}
									}
								}
								JOINT left_ring_1
								{
									OFFSET 0.097444 -0.009268 -0.027345
									CHANNELS 3 Zrotation Yrotation Xrotation
									JOINT left_ring_2
									{
										OFFSET 0.023561 -0.016057 -0.001895
										CHANNELS 3 Zrotation Yrotation Xrotation
										JOINT left_ring_3
										{
											OFFSET 0.004257 -0.023548 0.000814
											CHANNELS 3 Zrotation Yrotation Xrotation
											End Site
											{
												OFFSET 0.000000 0.000000 0.000000
											}
										}
									}
								}
								JOINT left_thumb_1
								{
									OFFSET 0.040636 -0.017977 0.025611
									CHANNELS 3 Zrotation Yrotation Xrotation
									JOINT left_thumb_2
									{
										OFFSET 0.021637 -0.017639 0.011623
										CHANNELS 3 Zrotation Yrotation Xrotation
										JOINT left_thumb_3
										{
											OFFSET 0.024002 -0.008356 0.006548
											CHANNELS 3 Zrotation Yrotation Xrotation
											End Site
											{
												OFFSET 0.000000 0.000000 0.000000
											}
										}
									}
								}
							}
						}
					}
				}
				JOINT right_collar
				{
					OFFSET -0.047695 0.084339 -0.013400
					CHANNELS 3 Zrotation Yrotation Xrotation
					JOINT right_shoulder
					{
						OFFSET -0.102578 0.053524 -0.012669
						CHANNELS 3 Zrotation Yrotation Xrotation
						JOINT right_elbow
						{
							OFFSET -0.271150 -0.036492 -0.026467
							CHANNELS 3 Zrotation Yrotation Xrotation
							JOINT right_wrist
							{
								OFFSET -0.249267 -0.004533 -0.015325
								CHANNELS 3 Zrotation Yrotation Xrotation
								JOINT right_index_1
								{
									OFFSET -0.099881 -0.011783 0.019600
									CHANNELS 3 Zrotation Yrotation Xrotation
									JOINT right_index_2
									{
										OFFSET -0.030148 -0.011154 0.001151
										CHANNELS 3 Zrotation Yrotation Xrotation
										JOINT right_index_3
										{
											OFFSET -0.006505 -0.021577 -0.002432
											CHANNELS 3 Zrotation Yrotation Xrotation
											End Site
											{
												OFFSET 0.000000 0.000000 0.000000
											}
										}
									}
								}
								JOINT right_middle_1
								{
									OFFSET -0.107376 -0.009422 -0.003734
									CHANNELS 3 Zrotation Yrotation Xrotation
									JOINT right_middle_2
									{
										OFFSET -0.026472 -0.015218 -0.004641
										CHANNELS 3 Zrotation Yrotation Xrotation
										JOINT right_middle_3
										{
											OFFSET -0.005022 -0.023347 -0.001911
											CHANNELS 3 Zrotation Yrotation Xrotation
											End Site
											{
												OFFSET 0.000000 0.000000 0.000000
											}
										}
									}
								}
								JOINT right_pinky_1
								{
									OFFSET -0.082027 -0.017634 -0.043503
									CHANNELS 3 Zrotation Yrotation Xrotation
									JOINT right_pinky_2
									{
										OFFSET -0.012123 -0.014448 -0.005374
										CHANNELS 3 Zrotation Yrotation Xrotation
										JOINT right_pinky_3
										{
											OFFSET -0.003798 -0.018852 0.000167
											CHANNELS 3 Zrotation Yrotation Xrotation
											End Site
											{
												OFFSET 0.000000 0.000000 0.000000
											}
										}
									}
								}
								JOINT right_ring_1
								{
									OFFSET -0.095423 -0.012362 -0.027099
									CHANNELS 3 Zrotation Yrotation Xrotation
									JOINT right_ring_2
									{
										OFFSET -0.023561 -0.016057 -0.001895
										CHANNELS 3 Zrotation Yrotation Xrotation
										JOINT right_ring_3
										{
											OFFSET -0.004257 -0.023548 0.000816
											CHANNELS 3 Zrotation Yrotation Xrotation
											End Site
											{
												OFFSET 0.000000 0.000000 0.000000
											}
										}
									}
								}
								JOINT right_thumb_1
								{
									OFFSET -0.038613 -0.021074 0.025861
									CHANNELS 3 Zrotation Yrotation Xrotation
									JOINT right_thumb_2
									{
										OFFSET -0.021636 -0.017639 0.011623
										CHANNELS 3 Zrotation Yrotation Xrotation
										JOINT right_thumb_3
										{
											OFFSET -0.024004 -0.008353 0.006547
											CHANNELS 3 Zrotation Yrotation Xrotation
											End Site
											{
												OFFSET 0.000000 0.000000 0.000000
											}
										}
									}
								}
							}
						}
					}
				}
			}
		}
	}
}
MOTION
Frames: 4
Frame Time: 0.050000
0.057267 0.909834 0.011147 -3.014750 3.673957 -15.976658 4.470788 1.029439 10.547496 -5.665281 -0.787418 17.588080 10.839659 4.854631 -23.435990 0.000000 0.000000 0.000000 -18.173422 0.185357 7.139285 13.447921 -3.069997 25.374607 -3.878877 2.597566 -15.815430 0.000000 0.000000 0.000000 -2.612966 -0.381937 3.752641 -6.922152 1.832921 -7.651099 7.915048 -2.061153 20.229176 2.621025 -0.856598 2.256124 0.000000 0.000000 0.000000 -0.461086 -4.181027 1.998713 -43.261025 -10.269306 -6.775526 144.231260 -61.374541 -107.067248 11.391225 -3.618017 -15.499767 6.375279 -1.420683 -0.828824 47.333486 -3.035886 -13.225426 0.000000 0.000000 0.000000 10.575678 -12.132422 -6.543180 41.579599 -2.102568 -5.849706 0.000000 0.000000 0.000000 31.727898 -17.032400 -20.188380 22.401820 0.485662 7.707318 0.000000 0.000000 0.000000 13.251704 -10.943105 -8.489136 39.071782 2.291912 -4.228543 0.000000 0.000000 0.000000 32.782498 19.822684 4.670279 -19.555055 -12.044923 3.010897 0.000000 0.000000 0.000000 -4.877175 5.574946 3.064276 32.355697 32.438156 1.124605 -99.083915 43.164909 -45.464430 -15.186567 1.413467 -29.858583 -9.469580 3.018827 -1.225617 -39.203739 2.518561 -17.115294 0.000000 0.000000 0.000000 -9.441740 16.523923 -8.779952 -32.858152 0.948491 -8.044962 0.000000 0.000000 0.000000 -21.826600 19.317286 -27.359459 -16.782794 -0.807009 4.344543 0.000000 0.000000 0.000000 -8.453344 16.589914 -12.148595 -28.582947 -2.363731 -7.491918 0.000000 0.000000 0.000000 -28.432611 -15.209983 -1.684379 19.029993 10.061788 2.877615 0.000000 0.000000 0.000000 
0.052085 0.937233 0.053383 -2.967397 6.338900 -17.712018 -0.348455 0.955666 6.870269 3.325357 -4.105121 24.123190 8.810607 8.984765 -11.598995 0.000000 0.000000 0.000000 -10.873019 -0.301950 4.821072 8.969929 -2.273902 28.462622 -5.489634 -11.184179 0.762738 0.000000 0.000000 0.000000 -4.848857 -0.640864 8.635996 -8.527033 1.617796 -11.631173 11.472594 -2.715374 27.352467 2.829948 -0.191222 -1.841427 0.000000 0.000000 0.000000 -1.135989 -5.117058 2.396613 -42.947518 -29.453426 -5.548699 128.885842 -57.490077 -83.567862 7.443534 -3.265591 -13.929160 0.161658 -5.209580 -1.663202 29.330590 -3.146538 -23.848305 0.000000 0.000000 0.000000 -0.115354 -15.486892 -8.589604 25.957383 -1.419782 -21.325125 0.000000 0.000000 0.000000 25.833157 -17.998401 -24.159473 10.539377 -0.603438 -5.492935 0.000000 0.000000 0.000000 3.940680 -15.359231 -11.001165 24.566210 1.433654 -19.685202 0.000000 0.000000 0.000000 23.836260 12.810922 -1.570428 -20.935314 -9.904104 3.753033 0.000000 0.000000 0.000000 -7.362033 6.655599 3.384979 27.870039 35.305062 0.837222 -103.880524 35.845419 -38.442894 -18.704663 2.392969 -38.502628 -9.973452 4.713556 -1.197426 -12.921596 12.335648 -33.165863 0.000000 0.000000 0.000000 -5.601671 21.562962 -10.540422 -5.216096 8.307941 -31.537710 0.000000 0.000000 0.000000 -11.621756 25.945664 -36.236299 -3.780909 1.017226 -3.862345 0.000000 0.000000 0.000000 -2.263323 23.828642 -15.282945 -8.864329 4.015964 -23.327431 0.000000 0.000000 0.000000 -26.669272 -10.836240 -6.385499 19.045064 10.313535 2.189117 0.000000 0.000000 0.000000 
0.043605 0.927563 0.082420 -3.429416 3.800160 -15.332120 0.877631 0.967296 7.377929 6.704881 -3.450294 16.326761 7.966290 11.026076 -6.719748 0.000000 0.000000 0.000000 -7.509271 -0.083295 1.654779 4.853377 -0.660080 26.669634 -5.758000 -14.082027 8.574872 0.000000 0.000000 0.000000 -2.634191 -0.852675 13.720371 -7.034683 0.574171 -12.514825 7.513102 -1.029465 24.584659 3.690500 -0.038920 -3.426229 0.000000 0.000000 0.000000 0.714153 -7.449668 3.602763 -36.804390 -43.858225 -5.350315 112.258715 -53.887143 -62.640267 10.302674 -0.328353 -8.222551 -42.651655 -9.689701 4.392468 -49.518644 -11.849252 -25.604267 0.000000 0.000000 0.000000 -73.315068 -21.498847 -4.441875 5.375433 -4.184719 -29.303747 0.000000 0.000000 0.000000 -23.002685 -54.170233 -61.240261 15.299152 4.444221 28.223151 0.000000 0.000000 0.000000 -62.471436 -46.134634 -3.730964 10.981326 -0.782222 -12.508614 0.000000 0.000000 0.000000 13.857427 -0.509837 -8.917490 -29.371667 9.949801 8.568187 0.000000 0.000000 0.000000 -13.623303 7.964734 3.892251 30.711520 38.844435 2.158963 -110.877164 32.063569 -37.490584 -18.522063 0.152251 -46.034517 -2.784177 -5.236808 1.051544 74.709555 17.714435 -9.221004 0.000000 0.000000 0.000000 16.582217 18.776809 -6.914408 45.336804 30.347332 -36.424814 0.000000 0.000000 0.000000 10.652676 31.908401 -36.557677 3.633607 3.915707 -9.129101 0.000000 0.000000 0.000000 17.819544 27.211087 -11.067638 15.286048 22.100760 -33.423806 0.000000 0.000000 0.000000 -24.948974 -16.891342 -3.594241 25.799038 3.965582 4.836113 0.000000 0.000000 0.000000 
0.054912 0.929900 0.071861 -4.081489 2.759918 -11.603947 4.185693 0.834710 8.558489 3.346425 -0.877374 4.459980 4.740049 6.129973 -4.394557 0.000000 0.000000 0.000000 -7.924055 0.030893 1.424460 6.319013 -0.767720 17.672940 -6.330824 -13.320912 2.616305 0.000000 0.000000 0.000000 0.662990 -0.616499 8.951684 -6.400696 0.248962 -12.469882 4.487441 -0.464725 24.521197 4.439867 -1.266336 2.308632 0.000000 0.000000 0.000000 -1.753737 -2.848489 1.241707 -33.855037 -43.073085 -6.100220 112.822951 -60.616623 -70.647799 7.591964 0.080982 -7.148854 -17.302140 0.056596 0.898820 -39.360358 0.973523 -4.132222 0.000000 0.000000 0.000000 -32.567078 -12.214220 -6.852740 -39.215932 -10.338718 -21.726810 0.000000 0.000000 0.000000 -1.738831 -30.464965 -42.207063 -24.580729 -6.266266 -10.495570 0.000000 0.000000 0.000000 -24.544130 -27.779045 -12.420902 -26.676993 -10.327714 -18.177641 0.000000 0.000000 0.000000 12.520426 14.581685 6.302492 -20.526492 -9.222209 3.482984 0.000000 0.000000 0.000000 -13.944562 8.918261 4.318228 31.904699 38.710234 2.398715 -112.461335 35.773503 -44.169428 -17.624603 -5.647005 -33.123863 5.059895 -9.594705 0.220279 83.864054 20.448692 -17.446593 0.000000 0.000000 0.000000 24.849928 10.373914 -5.521972 53.113622 34.118406 -46.061724 0.000000 0.000000 0.000000 13.701955 37.601736 -50.060830 1.936064 12.108194 -24.367833 0.000000 0.000000 0.000000 25.502593 27.614771 -11.080735 5.779657 28.844693 -60.828900 0.000000 0.000000 0.000000 -21.567134 -15.201562 -4.581374 20.319867 -21.879999 21.144579 0.000000 0.000000 0.000000 
